<svg viewBox="0 0 600 600" xmlns="http://www.w3.org/2000/svg"><g transform="translate(-.5 -.5)"><path d="m81.25.5a375.13 375.13 0 0 0 109.63 16.28 375.07 375.07 0 0 0 109.62-16.28 375.07 375.07 0 0 0 109.62 16.28 375.13 375.13 0 0 0 109.63-16.28 373.44 373.44 0 0 1 80.75 232.5c0 181.42-128.83 332.75-300 367.5-171.17-34.75-300-186.08-300-367.5a373.44 373.44 0 0 1 80.75-232.5z" fill="#fff"/><path d="m13 231.61a366.13 366.13 0 0 1 12.1-93.61h550.8a366.13 366.13 0 0 1 12.1 93.61c0 175.18-123.25 321.47-287.5 356.39-164.25-34.92-287.5-181.21-287.5-356.39z" fill="#d94991"/><path d="m28 125.5a371.31 371.31 0 0 1 55.86-110.85 390.64 390.64 0 0 0 105.46 14.42 390.42 390.42 0 0 0 111.18-16.07 390.42 390.42 0 0 0 111.18 16.07 390.59 390.59 0 0 0 105.46-14.42 371.31 371.31 0 0 1 55.86 110.85z" fill="#873e4f"/></g><text fill="#fff" font-family="HighwayGothic, Highway Gothic" font-size="380" transform="translate(96.31 445.5)">PL</text><text fill="#fff" font-family="HighwayGothicNarrow, Highway Gothic Narrow" font-size="95" transform="translate(114.54 112.5)">PYNK LYNN</text></svg>